<?xml version="1.0" encoding="utf-8" standalone="no"?>
<!DOCTYPE svg PUBLIC "-//W3C//DTD SVG 1.1//EN"
  "http://www.w3.org/Graphics/SVG/1.1/DTD/svg11.dtd">
<svg xmlns:xlink="http://www.w3.org/1999/xlink" width="720pt" height="432pt" viewBox="0 0 720 432" xmlns="http://www.w3.org/2000/svg" version="1.1">
 <metadata>
  <rdf:RDF xmlns:dc="http://purl.org/dc/elements/1.1/" xmlns:cc="http://creativecommons.org/ns#" xmlns:rdf="http://www.w3.org/1999/02/22-rdf-syntax-ns#">
   <cc:Work>
    <dc:type rdf:resource="http://purl.org/dc/dcmitype/StillImage"/>
    <dc:date>2026-03-18T21:43:14.394682</dc:date>
    <dc:format>image/svg+xml</dc:format>
    <dc:creator>
     <cc:Agent>
      <dc:title>Matplotlib v3.10.8, https://matplotlib.org/</dc:title>
     </cc:Agent>
    </dc:creator>
   </cc:Work>
  </rdf:RDF>
 </metadata>
 <defs>
  <style type="text/css">*{stroke-linejoin: round; stroke-linecap: butt}</style>
 </defs>
 <g id="figure_1">
  <g id="patch_1">
   <path d="M 0 432 
L 720 432 
L 720 0 
L 0 0 
z
" style="fill: #ffffff"/>
  </g>
  <g id="axes_1">
   <g id="patch_2">
    <path d="M 52.85 51.799726 
L 709.2 51.799726 
L 709.2 10.8 
L 52.85 10.8 
z
" style="fill: #ffffff"/>
   </g>
   <g id="matplotlib.axis_1">
    <g id="xtick_1">
     <g id="line2d_1">
      <defs>
       <path id="m6656601ab6" d="M 0 0 
L 0 3.5 
" style="stroke: #000000; stroke-width: 0.8"/>
      </defs>
      <g>
       <use xlink:href="#m6656601ab6" x="82.684091" y="51.799726" style="stroke: #000000; stroke-width: 0.8"/>
      </g>
     </g>
    </g>
    <g id="xtick_2">
     <g id="line2d_2">
      <g>
       <use xlink:href="#m6656601ab6" x="202.379541" y="51.799726" style="stroke: #000000; stroke-width: 0.8"/>
      </g>
     </g>
    </g>
    <g id="xtick_3">
     <g id="line2d_3">
      <g>
       <use xlink:href="#m6656601ab6" x="322.074991" y="51.799726" style="stroke: #000000; stroke-width: 0.8"/>
      </g>
     </g>
    </g>
    <g id="xtick_4">
     <g id="line2d_4">
      <g>
       <use xlink:href="#m6656601ab6" x="441.770441" y="51.799726" style="stroke: #000000; stroke-width: 0.8"/>
      </g>
     </g>
    </g>
    <g id="xtick_5">
     <g id="line2d_5">
      <g>
       <use xlink:href="#m6656601ab6" x="561.465891" y="51.799726" style="stroke: #000000; stroke-width: 0.8"/>
      </g>
     </g>
    </g>
    <g id="xtick_6">
     <g id="line2d_6">
      <g>
       <use xlink:href="#m6656601ab6" x="681.161341" y="51.799726" style="stroke: #000000; stroke-width: 0.8"/>
      </g>
     </g>
    </g>
   </g>
   <g id="matplotlib.axis_2">
    <g id="ytick_1">
     <g id="line2d_7">
      <defs>
       <path id="mb67a8460a0" d="M 0 0 
L -3.5 0 
" style="stroke: #000000; stroke-width: 0.8"/>
      </defs>
      <g>
       <use xlink:href="#mb67a8460a0" x="52.85" y="48.62623" style="stroke: #000000; stroke-width: 0.8"/>
      </g>
     </g>
     <g id="text_1">
      <!-- 0 -->
      <g transform="translate(39.4875 52.425449) scale(0.1 -0.1)">
       <defs>
        <path id="DejaVuSans-30" d="M 2034 4250 
Q 1547 4250 1301 3770 
Q 1056 3291 1056 2328 
Q 1056 1369 1301 889 
Q 1547 409 2034 409 
Q 2525 409 2770 889 
Q 3016 1369 3016 2328 
Q 3016 3291 2770 3770 
Q 2525 4250 2034 4250 
z
M 2034 4750 
Q 2819 4750 3233 4129 
Q 3647 3509 3647 2328 
Q 3647 1150 3233 529 
Q 2819 -91 2034 -91 
Q 1250 -91 836 529 
Q 422 1150 422 2328 
Q 422 3509 836 4129 
Q 1250 4750 2034 4750 
z
" transform="scale(0.015625)"/>
       </defs>
       <use xlink:href="#DejaVuSans-30"/>
      </g>
     </g>
    </g>
    <g id="ytick_2">
     <g id="line2d_8">
      <g>
       <use xlink:href="#mb67a8460a0" x="52.85" y="22.244846" style="stroke: #000000; stroke-width: 0.8"/>
      </g>
     </g>
     <g id="text_2">
      <!-- 50 -->
      <g transform="translate(33.125 26.044065) scale(0.1 -0.1)">
       <defs>
        <path id="DejaVuSans-35" d="M 691 4666 
L 3169 4666 
L 3169 4134 
L 1269 4134 
L 1269 2991 
Q 1406 3038 1543 3061 
Q 1681 3084 1819 3084 
Q 2600 3084 3056 2656 
Q 3513 2228 3513 1497 
Q 3513 744 3044 326 
Q 2575 -91 1722 -91 
Q 1428 -91 1123 -41 
Q 819 9 494 109 
L 494 744 
Q 775 591 1075 516 
Q 1375 441 1709 441 
Q 2250 441 2565 725 
Q 2881 1009 2881 1497 
Q 2881 1984 2565 2268 
Q 2250 2553 1709 2553 
Q 1456 2553 1204 2497 
Q 953 2441 691 2322 
L 691 4666 
z
" transform="scale(0.015625)"/>
       </defs>
       <use xlink:href="#DejaVuSans-35"/>
       <use xlink:href="#DejaVuSans-30" transform="translate(63.623047 0)"/>
      </g>
     </g>
    </g>
    <g id="text_3">
     <!-- x1 -->
     <g transform="translate(27.045313 37.440488) rotate(-90) scale(0.1 -0.1)">
      <defs>
       <path id="DejaVuSans-78" d="M 3513 3500 
L 2247 1797 
L 3578 0 
L 2900 0 
L 1881 1375 
L 863 0 
L 184 0 
L 1544 1831 
L 300 3500 
L 978 3500 
L 1906 2253 
L 2834 3500 
L 3513 3500 
z
" transform="scale(0.015625)"/>
       <path id="DejaVuSans-31" d="M 794 531 
L 1825 531 
L 1825 4091 
L 703 3866 
L 703 4441 
L 1819 4666 
L 2450 4666 
L 2450 531 
L 3481 531 
L 3481 0 
L 794 0 
L 794 531 
z
" transform="scale(0.015625)"/>
      </defs>
      <use xlink:href="#DejaVuSans-78"/>
      <use xlink:href="#DejaVuSans-31" transform="translate(59.179688 0)"/>
     </g>
    </g>
   </g>
   <g id="line2d_9">
    <path d="M 82.684091 48.626367 
L 85.078 48.55784 
L 89.865818 48.234774 
L 96.449068 48.096074 
L 101.835363 48.076057 
L 112.009476 47.983446 
L 117.395771 48.020478 
L 119.78968 47.997381 
L 153.902884 48.161019 
L 161.084611 48.077241 
L 180.235883 47.949537 
L 185.622178 47.935934 
L 189.811519 47.984905 
L 200.584109 48.006699 
L 221.530813 48.12191 
L 226.917108 48.119104 
L 233.500358 48.068216 
L 234.697312 49.007229 
L 235.894267 49.612925 
L 237.091221 49.891147 
L 238.288176 49.920888 
L 240.083608 49.661677 
L 247.863812 48.522036 
L 252.65163 48.145966 
L 257.439448 48.039877 
L 260.431834 47.972986 
L 278.984629 48.030008 
L 302.325242 48.054779 
L 347.809513 47.939521 
L 350.801899 47.980653 
L 354.99124 48.000974 
L 375.339466 48.023589 
L 380.725761 48.009162 
L 381.324239 48.615384 
L 384.915102 48.467957 
L 392.695306 48.131232 
L 399.877033 48.026562 
L 404.664851 47.944427 
L 430.399373 48.089686 
L 436.982623 48.132433 
L 451.944554 48.168656 
L 460.921713 48.058554 
L 464.512576 48.06726 
L 469.300394 48.006825 
L 478.87603 47.95455 
L 481.868417 47.972732 
L 486.656235 47.960772 
L 499.224257 48.016601 
L 505.807507 48.102552 
L 511.193802 48.140337 
L 520.769438 48.15626 
L 532.738983 48.069395 
L 533.33746 47.54108 
L 533.935937 46.585114 
L 535.132892 43.718588 
L 536.928324 38.186313 
L 538.723755 32.640902 
L 539.92071 29.332524 
L 541.117664 26.477698 
L 542.314619 24.040072 
L 543.511573 22.005238 
L 544.708528 20.312354 
L 545.905482 18.934621 
L 547.102437 17.800085 
L 548.897869 16.469669 
L 550.094823 15.78007 
L 552.488732 14.766286 
L 555.481118 13.930514 
L 559.670459 13.301588 
L 562.662845 13.101319 
L 569.246095 12.92914 
L 574.63239 12.885137 
L 587.200413 12.914259 
L 651.237478 12.795912 
L 679.365909 12.792175 
L 679.365909 12.792175 
" clip-path="url(#pde21c7fb6b)" style="fill: none; stroke: #1f77b4; stroke-width: 1.5; stroke-linecap: square"/>
   </g>
   <g id="patch_3">
    <path d="M 52.85 51.799726 
L 52.85 10.8 
" style="fill: none; stroke: #000000; stroke-width: 0.8; stroke-linejoin: miter; stroke-linecap: square"/>
   </g>
   <g id="patch_4">
    <path d="M 709.2 51.799726 
L 709.2 10.8 
" style="fill: none; stroke: #000000; stroke-width: 0.8; stroke-linejoin: miter; stroke-linecap: square"/>
   </g>
   <g id="patch_5">
    <path d="M 52.85 51.799726 
L 709.2 51.799726 
" style="fill: none; stroke: #000000; stroke-width: 0.8; stroke-linejoin: miter; stroke-linecap: square"/>
   </g>
   <g id="patch_6">
    <path d="M 52.85 10.8 
L 709.2 10.8 
" style="fill: none; stroke: #000000; stroke-width: 0.8; stroke-linejoin: miter; stroke-linecap: square"/>
   </g>
  </g>
  <g id="axes_2">
   <g id="patch_7">
    <path d="M 52.85 110.519772 
L 709.2 110.519772 
L 709.2 69.520046 
L 52.85 69.520046 
z
" style="fill: #ffffff"/>
   </g>
   <g id="matplotlib.axis_3">
    <g id="xtick_7">
     <g id="line2d_10">
      <g>
       <use xlink:href="#m6656601ab6" x="82.684091" y="110.519772" style="stroke: #000000; stroke-width: 0.8"/>
      </g>
     </g>
    </g>
    <g id="xtick_8">
     <g id="line2d_11">
      <g>
       <use xlink:href="#m6656601ab6" x="202.379541" y="110.519772" style="stroke: #000000; stroke-width: 0.8"/>
      </g>
     </g>
    </g>
    <g id="xtick_9">
     <g id="line2d_12">
      <g>
       <use xlink:href="#m6656601ab6" x="322.074991" y="110.519772" style="stroke: #000000; stroke-width: 0.8"/>
      </g>
     </g>
    </g>
    <g id="xtick_10">
     <g id="line2d_13">
      <g>
       <use xlink:href="#m6656601ab6" x="441.770441" y="110.519772" style="stroke: #000000; stroke-width: 0.8"/>
      </g>
     </g>
    </g>
    <g id="xtick_11">
     <g id="line2d_14">
      <g>
       <use xlink:href="#m6656601ab6" x="561.465891" y="110.519772" style="stroke: #000000; stroke-width: 0.8"/>
      </g>
     </g>
    </g>
    <g id="xtick_12">
     <g id="line2d_15">
      <g>
       <use xlink:href="#m6656601ab6" x="681.161341" y="110.519772" style="stroke: #000000; stroke-width: 0.8"/>
      </g>
     </g>
    </g>
   </g>
   <g id="matplotlib.axis_4">
    <g id="ytick_3">
     <g id="line2d_16">
      <g>
       <use xlink:href="#mb67a8460a0" x="52.85" y="107.697935" style="stroke: #000000; stroke-width: 0.8"/>
      </g>
     </g>
     <g id="text_4">
      <!-- 0 -->
      <g transform="translate(39.4875 111.497153) scale(0.1 -0.1)">
       <use xlink:href="#DejaVuSans-30"/>
      </g>
     </g>
    </g>
    <g id="ytick_4">
     <g id="line2d_17">
      <g>
       <use xlink:href="#mb67a8460a0" x="52.85" y="86.374759" style="stroke: #000000; stroke-width: 0.8"/>
      </g>
     </g>
     <g id="text_5">
      <!-- 100 -->
      <g transform="translate(26.7625 90.173978) scale(0.1 -0.1)">
       <use xlink:href="#DejaVuSans-31"/>
       <use xlink:href="#DejaVuSans-30" transform="translate(63.623047 0)"/>
       <use xlink:href="#DejaVuSans-30" transform="translate(127.246094 0)"/>
      </g>
     </g>
    </g>
    <g id="text_6">
     <!-- x2 -->
     <g transform="translate(20.682813 96.160534) rotate(-90) scale(0.1 -0.1)">
      <defs>
       <path id="DejaVuSans-32" d="M 1228 531 
L 3431 531 
L 3431 0 
L 469 0 
L 469 531 
Q 828 903 1448 1529 
Q 2069 2156 2228 2338 
Q 2531 2678 2651 2914 
Q 2772 3150 2772 3378 
Q 2772 3750 2511 3984 
Q 2250 4219 1831 4219 
Q 1534 4219 1204 4116 
Q 875 4013 500 3803 
L 500 4441 
Q 881 4594 1212 4672 
Q 1544 4750 1819 4750 
Q 2544 4750 2975 4387 
Q 3406 4025 3406 3419 
Q 3406 3131 3298 2873 
Q 3191 2616 2906 2266 
Q 2828 2175 2409 1742 
Q 1991 1309 1228 531 
z
" transform="scale(0.015625)"/>
      </defs>
      <use xlink:href="#DejaVuSans-78"/>
      <use xlink:href="#DejaVuSans-32" transform="translate(59.179688 0)"/>
     </g>
    </g>
   </g>
   <g id="line2d_18">
    <path d="M 82.684091 107.694631 
L 91.062772 107.538339 
L 97.047545 107.284493 
L 116.797294 107.052407 
L 122.183589 107.074187 
L 127.569885 107.103455 
L 135.350089 107.178306 
L 161.683088 107.18421 
L 171.857201 107.091851 
L 194.000859 107.028898 
L 201.182586 107.069578 
L 223.326245 107.188028 
L 237.091221 107.247015 
L 238.886653 107.830411 
L 240.682085 108.379225 
L 242.477517 108.646967 
L 244.871426 108.57865 
L 247.863812 108.232484 
L 252.053153 107.742843 
L 256.840971 107.324546 
L 263.42422 107.097352 
L 269.408993 107.024706 
L 287.961788 107.106838 
L 319.082605 107.032931 
L 326.264332 106.971519 
L 332.847581 106.955963 
L 375.339466 107.100541 
L 380.725761 107.094603 
L 381.324239 107.700644 
L 390.301397 107.522946 
L 397.483124 107.226118 
L 425.611555 107.101453 
L 444.762827 107.237799 
L 453.141509 107.227241 
L 456.732372 107.226611 
L 488.451666 107.02028 
L 509.996847 107.163056 
L 520.769438 107.2073 
L 530.943551 107.168516 
L 536.329846 107.008461 
L 536.928324 106.739958 
L 537.526801 106.259912 
L 538.125278 105.56011 
L 539.322233 103.540005 
L 540.519187 100.857638 
L 542.913096 94.59773 
L 545.307005 88.561999 
L 547.102437 84.728937 
L 548.897869 81.580829 
L 550.094823 79.861446 
L 551.291778 78.399828 
L 552.488732 77.179863 
L 554.284164 75.731682 
L 556.079596 74.631992 
L 557.875027 73.784498 
L 560.268936 72.999742 
L 563.261323 72.363787 
L 565.655232 72.042191 
L 570.44305 71.752977 
L 578.223254 71.587972 
L 590.192799 71.600673 
L 599.169958 71.613238 
L 619.518184 71.491171 
L 634.480115 71.421824 
L 655.426819 71.490041 
L 672.184182 71.55496 
L 679.365909 71.554706 
L 679.365909 71.554706 
" clip-path="url(#p915e81b1b9)" style="fill: none; stroke: #ff7f0e; stroke-width: 1.5; stroke-linecap: square"/>
   </g>
   <g id="patch_8">
    <path d="M 52.85 110.519772 
L 52.85 69.520046 
" style="fill: none; stroke: #000000; stroke-width: 0.8; stroke-linejoin: miter; stroke-linecap: square"/>
   </g>
   <g id="patch_9">
    <path d="M 709.2 110.519772 
L 709.2 69.520046 
" style="fill: none; stroke: #000000; stroke-width: 0.8; stroke-linejoin: miter; stroke-linecap: square"/>
   </g>
   <g id="patch_10">
    <path d="M 52.85 110.519772 
L 709.2 110.519772 
" style="fill: none; stroke: #000000; stroke-width: 0.8; stroke-linejoin: miter; stroke-linecap: square"/>
   </g>
   <g id="patch_11">
    <path d="M 52.85 69.520046 
L 709.2 69.520046 
" style="fill: none; stroke: #000000; stroke-width: 0.8; stroke-linejoin: miter; stroke-linecap: square"/>
   </g>
  </g>
  <g id="axes_3">
   <g id="patch_12">
    <path d="M 52.85 169.239817 
L 709.2 169.239817 
L 709.2 128.240091 
L 52.85 128.240091 
z
" style="fill: #ffffff"/>
   </g>
   <g id="matplotlib.axis_5">
    <g id="xtick_13">
     <g id="line2d_19">
      <g>
       <use xlink:href="#m6656601ab6" x="82.684091" y="169.239817" style="stroke: #000000; stroke-width: 0.8"/>
      </g>
     </g>
    </g>
    <g id="xtick_14">
     <g id="line2d_20">
      <g>
       <use xlink:href="#m6656601ab6" x="202.379541" y="169.239817" style="stroke: #000000; stroke-width: 0.8"/>
      </g>
     </g>
    </g>
    <g id="xtick_15">
     <g id="line2d_21">
      <g>
       <use xlink:href="#m6656601ab6" x="322.074991" y="169.239817" style="stroke: #000000; stroke-width: 0.8"/>
      </g>
     </g>
    </g>
    <g id="xtick_16">
     <g id="line2d_22">
      <g>
       <use xlink:href="#m6656601ab6" x="441.770441" y="169.239817" style="stroke: #000000; stroke-width: 0.8"/>
      </g>
     </g>
    </g>
    <g id="xtick_17">
     <g id="line2d_23">
      <g>
       <use xlink:href="#m6656601ab6" x="561.465891" y="169.239817" style="stroke: #000000; stroke-width: 0.8"/>
      </g>
     </g>
    </g>
    <g id="xtick_18">
     <g id="line2d_24">
      <g>
       <use xlink:href="#m6656601ab6" x="681.161341" y="169.239817" style="stroke: #000000; stroke-width: 0.8"/>
      </g>
     </g>
    </g>
   </g>
   <g id="matplotlib.axis_6">
    <g id="ytick_5">
     <g id="line2d_25">
      <g>
       <use xlink:href="#mb67a8460a0" x="52.85" y="167.503176" style="stroke: #000000; stroke-width: 0.8"/>
      </g>
     </g>
     <g id="text_7">
      <!-- 0 -->
      <g transform="translate(39.4875 171.302395) scale(0.1 -0.1)">
       <use xlink:href="#DejaVuSans-30"/>
      </g>
     </g>
    </g>
    <g id="ytick_6">
     <g id="line2d_26">
      <g>
       <use xlink:href="#mb67a8460a0" x="52.85" y="140.049283" style="stroke: #000000; stroke-width: 0.8"/>
      </g>
     </g>
     <g id="text_8">
      <!-- 10 -->
      <g transform="translate(33.125 143.848501) scale(0.1 -0.1)">
       <use xlink:href="#DejaVuSans-31"/>
       <use xlink:href="#DejaVuSans-30" transform="translate(63.623047 0)"/>
      </g>
     </g>
    </g>
    <g id="text_9">
     <!-- u1 -->
     <g transform="translate(27.045313 155.089954) rotate(-90) scale(0.1 -0.1)">
      <defs>
       <path id="DejaVuSans-75" d="M 544 1381 
L 544 3500 
L 1119 3500 
L 1119 1403 
Q 1119 906 1312 657 
Q 1506 409 1894 409 
Q 2359 409 2629 706 
Q 2900 1003 2900 1516 
L 2900 3500 
L 3475 3500 
L 3475 0 
L 2900 0 
L 2900 538 
Q 2691 219 2414 64 
Q 2138 -91 1772 -91 
Q 1169 -91 856 284 
Q 544 659 544 1381 
z
M 1991 3584 
L 1991 3584 
z
" transform="scale(0.015625)"/>
      </defs>
      <use xlink:href="#DejaVuSans-75"/>
      <use xlink:href="#DejaVuSans-31" transform="translate(63.378906 0)"/>
     </g>
    </g>
   </g>
   <g id="line2d_27">
    <path d="M 82.684091 167.376193 
L 83.881045 167.21374 
L 88.070386 167.025773 
L 118.592726 166.901489 
L 128.766839 166.99202 
L 147.319634 167.010668 
L 193.402382 166.837284 
L 205.970404 166.939374 
L 216.742995 166.964523 
L 223.326245 166.95706 
L 234.098835 166.870594 
L 235.29579 166.497255 
L 238.288176 165.460172 
L 240.083608 165.040893 
L 243.075994 164.606166 
L 247.863812 164.281562 
L 252.053153 164.158205 
L 264.022698 164.070832 
L 284.370924 164.163778 
L 290.355697 164.198807 
L 302.923719 164.140351 
L 344.218649 164.053409 
L 357.983626 164.130151 
L 379.528807 164.085375 
L 380.725761 164.064568 
L 381.324239 167.374068 
L 382.521193 167.208705 
L 385.513579 167.049249 
L 392.096829 166.919009 
L 399.278556 166.820657 
L 408.854192 166.832329 
L 448.353691 167.014879 
L 485.45928 166.838374 
L 512.989234 166.99887 
L 524.360301 166.929872 
L 530.943551 166.895939 
L 534.534415 150.85737 
L 535.731369 146.723182 
L 536.928324 143.413127 
L 538.125278 140.80042 
L 539.322233 138.716076 
L 540.519187 137.07372 
L 541.716142 135.760787 
L 543.511573 134.262622 
L 545.307005 133.16985 
L 547.102437 132.367993 
L 549.496346 131.621119 
L 551.890255 131.121204 
L 554.882641 130.744751 
L 559.670459 130.442031 
L 571.041527 130.275356 
L 580.617163 130.322797 
L 592.586708 130.305201 
L 644.654229 130.226393 
L 659.017683 130.294517 
L 679.365909 130.217697 
L 679.365909 130.217697 
" clip-path="url(#p0c77be3a2d)" style="fill: none; stroke: #2ca02c; stroke-width: 1.5; stroke-linecap: square"/>
   </g>
   <g id="patch_13">
    <path d="M 52.85 169.239817 
L 52.85 128.240091 
" style="fill: none; stroke: #000000; stroke-width: 0.8; stroke-linejoin: miter; stroke-linecap: square"/>
   </g>
   <g id="patch_14">
    <path d="M 709.2 169.239817 
L 709.2 128.240091 
" style="fill: none; stroke: #000000; stroke-width: 0.8; stroke-linejoin: miter; stroke-linecap: square"/>
   </g>
   <g id="patch_15">
    <path d="M 52.85 169.239817 
L 709.2 169.239817 
" style="fill: none; stroke: #000000; stroke-width: 0.8; stroke-linejoin: miter; stroke-linecap: square"/>
   </g>
   <g id="patch_16">
    <path d="M 52.85 128.240091 
L 709.2 128.240091 
" style="fill: none; stroke: #000000; stroke-width: 0.8; stroke-linejoin: miter; stroke-linecap: square"/>
   </g>
  </g>
  <g id="axes_4">
   <g id="patch_17">
    <path d="M 52.85 227.959863 
L 709.2 227.959863 
L 709.2 186.960137 
L 52.85 186.960137 
z
" style="fill: #ffffff"/>
   </g>
   <g id="matplotlib.axis_7">
    <g id="xtick_19">
     <g id="line2d_28">
      <g>
       <use xlink:href="#m6656601ab6" x="82.684091" y="227.959863" style="stroke: #000000; stroke-width: 0.8"/>
      </g>
     </g>
    </g>
    <g id="xtick_20">
     <g id="line2d_29">
      <g>
       <use xlink:href="#m6656601ab6" x="202.379541" y="227.959863" style="stroke: #000000; stroke-width: 0.8"/>
      </g>
     </g>
    </g>
    <g id="xtick_21">
     <g id="line2d_30">
      <g>
       <use xlink:href="#m6656601ab6" x="322.074991" y="227.959863" style="stroke: #000000; stroke-width: 0.8"/>
      </g>
     </g>
    </g>
    <g id="xtick_22">
     <g id="line2d_31">
      <g>
       <use xlink:href="#m6656601ab6" x="441.770441" y="227.959863" style="stroke: #000000; stroke-width: 0.8"/>
      </g>
     </g>
    </g>
    <g id="xtick_23">
     <g id="line2d_32">
      <g>
       <use xlink:href="#m6656601ab6" x="561.465891" y="227.959863" style="stroke: #000000; stroke-width: 0.8"/>
      </g>
     </g>
    </g>
    <g id="xtick_24">
     <g id="line2d_33">
      <g>
       <use xlink:href="#m6656601ab6" x="681.161341" y="227.959863" style="stroke: #000000; stroke-width: 0.8"/>
      </g>
     </g>
    </g>
   </g>
   <g id="matplotlib.axis_8">
    <g id="ytick_7">
     <g id="line2d_34">
      <g>
       <use xlink:href="#mb67a8460a0" x="52.85" y="217.199482" style="stroke: #000000; stroke-width: 0.8"/>
      </g>
     </g>
     <g id="text_10">
      <!-- −50 -->
      <g transform="translate(24.745313 220.998701) scale(0.1 -0.1)">
       <defs>
        <path id="DejaVuSans-2212" d="M 678 2272 
L 4684 2272 
L 4684 1741 
L 678 1741 
L 678 2272 
z
" transform="scale(0.015625)"/>
       </defs>
       <use xlink:href="#DejaVuSans-2212"/>
       <use xlink:href="#DejaVuSans-35" transform="translate(83.789062 0)"/>
       <use xlink:href="#DejaVuSans-30" transform="translate(147.412109 0)"/>
      </g>
     </g>
    </g>
    <g id="ytick_8">
     <g id="line2d_35">
      <g>
       <use xlink:href="#mb67a8460a0" x="52.85" y="190.798559" style="stroke: #000000; stroke-width: 0.8"/>
      </g>
     </g>
     <g id="text_11">
      <!-- 0 -->
      <g transform="translate(39.4875 194.597778) scale(0.1 -0.1)">
       <use xlink:href="#DejaVuSans-30"/>
      </g>
     </g>
    </g>
    <g id="text_12">
     <!-- e1 -->
     <g transform="translate(18.665625 213.717813) rotate(-90) scale(0.1 -0.1)">
      <defs>
       <path id="DejaVuSans-65" d="M 3597 1894 
L 3597 1613 
L 953 1613 
Q 991 1019 1311 708 
Q 1631 397 2203 397 
Q 2534 397 2845 478 
Q 3156 559 3463 722 
L 3463 178 
Q 3153 47 2828 -22 
Q 2503 -91 2169 -91 
Q 1331 -91 842 396 
Q 353 884 353 1716 
Q 353 2575 817 3079 
Q 1281 3584 2069 3584 
Q 2775 3584 3186 3129 
Q 3597 2675 3597 1894 
z
M 3022 2063 
Q 3016 2534 2758 2815 
Q 2500 3097 2075 3097 
Q 1594 3097 1305 2825 
Q 1016 2553 972 2059 
L 3022 2063 
z
" transform="scale(0.015625)"/>
      </defs>
      <use xlink:href="#DejaVuSans-65"/>
      <use xlink:href="#DejaVuSans-31" transform="translate(61.523438 0)"/>
     </g>
    </g>
   </g>
   <g id="line2d_36">
    <path d="M 82.684091 190.271698 
L 87.471909 190.413873 
L 89.865818 190.598691 
L 91.66125 190.603882 
L 94.055159 190.654671 
L 98.244499 190.69258 
L 100.638408 190.707637 
L 102.43384 190.724054 
L 110.812522 190.813356 
L 142.531816 190.825992 
L 144.327248 190.765137 
L 148.516588 190.744306 
L 156.89527 190.728812 
L 160.486133 190.763651 
L 164.076997 190.702457 
L 166.470906 190.744497 
L 185.023701 190.811599 
L 187.41761 190.838313 
L 190.409996 190.82415 
L 205.371927 190.864208 
L 206.568882 190.84619 
L 220.932336 190.78808 
L 225.121676 190.757226 
L 228.71254 190.746115 
L 231.704926 190.754936 
L 234.098835 190.722474 
L 235.29579 189.770212 
L 236.492744 189.16611 
L 237.689699 188.875548 
L 238.886653 188.823761 
L 240.682085 189.085642 
L 246.666857 190.001726 
L 249.659244 190.302996 
L 252.65163 190.521924 
L 256.242493 190.631958 
L 258.636402 190.699791 
L 261.628789 190.795102 
L 263.42422 190.790445 
L 265.818129 190.845155 
L 267.613561 190.817354 
L 316.090218 190.770095 
L 319.082605 190.76316 
L 326.862809 190.786215 
L 329.855195 190.771198 
L 335.839968 190.815618 
L 346.612558 190.863059 
L 349.604944 190.810205 
L 351.998853 190.860546 
L 354.99124 190.830826 
L 363.369921 190.825824 
L 367.559262 190.771568 
L 377.134898 190.771483 
L 380.725761 190.716192 
L 381.324239 190.276625 
L 384.316625 190.313385 
L 386.710534 190.46032 
L 389.70292 190.588346 
L 399.877033 190.695837 
L 401.073988 190.789445 
L 406.460283 190.827575 
L 409.452669 190.822204 
L 412.445056 190.820761 
L 414.838965 190.864794 
L 450.7476 190.738179 
L 455.535418 190.734519 
L 457.929327 190.737097 
L 460.323236 190.735879 
L 480.072985 190.78971 
L 482.466894 190.793988 
L 489.050144 190.824452 
L 491.444053 190.79828 
L 499.224257 190.883185 
L 511.792279 190.794004 
L 514.186188 190.765884 
L 517.178574 190.773607 
L 518.974006 190.776464 
L 526.155733 190.736856 
L 527.951165 190.768341 
L 533.33746 190.732391 
L 533.935937 191.254782 
L 534.534415 192.189923 
L 535.731369 195.054774 
L 537.526801 200.583741 
L 539.322233 206.101734 
L 540.519187 209.414506 
L 542.314619 213.556475 
L 544.110051 216.734195 
L 545.307005 218.413711 
L 546.50396 219.788239 
L 547.700914 220.925203 
L 548.897869 221.872497 
L 550.6933 222.965243 
L 553.685687 224.141598 
L 555.481118 224.688712 
L 559.670459 225.393937 
L 561.465891 225.604719 
L 575.230868 226.000408 
L 594.980617 225.945616 
L 596.177571 225.960782 
L 602.162344 225.996673 
L 603.957776 225.952921 
L 655.426819 226.058085 
L 657.222251 226.026949 
L 679.365909 225.952382 
L 679.365909 225.952382 
" clip-path="url(#p795244fa3c)" style="fill: none; stroke: #d62728; stroke-width: 1.5; stroke-linecap: square"/>
   </g>
   <g id="patch_18">
    <path d="M 52.85 227.959863 
L 52.85 186.960137 
" style="fill: none; stroke: #000000; stroke-width: 0.8; stroke-linejoin: miter; stroke-linecap: square"/>
   </g>
   <g id="patch_19">
    <path d="M 709.2 227.959863 
L 709.2 186.960137 
" style="fill: none; stroke: #000000; stroke-width: 0.8; stroke-linejoin: miter; stroke-linecap: square"/>
   </g>
   <g id="patch_20">
    <path d="M 52.85 227.959863 
L 709.2 227.959863 
" style="fill: none; stroke: #000000; stroke-width: 0.8; stroke-linejoin: miter; stroke-linecap: square"/>
   </g>
   <g id="patch_21">
    <path d="M 52.85 186.960137 
L 709.2 186.960137 
" style="fill: none; stroke: #000000; stroke-width: 0.8; stroke-linejoin: miter; stroke-linecap: square"/>
   </g>
  </g>
  <g id="axes_5">
   <g id="patch_22">
    <path d="M 52.85 286.679909 
L 709.2 286.679909 
L 709.2 245.680183 
L 52.85 245.680183 
z
" style="fill: #ffffff"/>
   </g>
   <g id="matplotlib.axis_9">
    <g id="xtick_25">
     <g id="line2d_37">
      <g>
       <use xlink:href="#m6656601ab6" x="82.684091" y="286.679909" style="stroke: #000000; stroke-width: 0.8"/>
      </g>
     </g>
    </g>
    <g id="xtick_26">
     <g id="line2d_38">
      <g>
       <use xlink:href="#m6656601ab6" x="202.379541" y="286.679909" style="stroke: #000000; stroke-width: 0.8"/>
      </g>
     </g>
    </g>
    <g id="xtick_27">
     <g id="line2d_39">
      <g>
       <use xlink:href="#m6656601ab6" x="322.074991" y="286.679909" style="stroke: #000000; stroke-width: 0.8"/>
      </g>
     </g>
    </g>
    <g id="xtick_28">
     <g id="line2d_40">
      <g>
       <use xlink:href="#m6656601ab6" x="441.770441" y="286.679909" style="stroke: #000000; stroke-width: 0.8"/>
      </g>
     </g>
    </g>
    <g id="xtick_29">
     <g id="line2d_41">
      <g>
       <use xlink:href="#m6656601ab6" x="561.465891" y="286.679909" style="stroke: #000000; stroke-width: 0.8"/>
      </g>
     </g>
    </g>
    <g id="xtick_30">
     <g id="line2d_42">
      <g>
       <use xlink:href="#m6656601ab6" x="681.161341" y="286.679909" style="stroke: #000000; stroke-width: 0.8"/>
      </g>
     </g>
    </g>
   </g>
   <g id="matplotlib.axis_10">
    <g id="ytick_9">
     <g id="line2d_43">
      <g>
       <use xlink:href="#mb67a8460a0" x="52.85" y="274.930943" style="stroke: #000000; stroke-width: 0.8"/>
      </g>
     </g>
     <g id="text_13">
      <!-- 1.0 -->
      <g transform="translate(29.946875 278.730162) scale(0.1 -0.1)">
       <defs>
        <path id="DejaVuSans-2e" d="M 684 794 
L 1344 794 
L 1344 0 
L 684 0 
L 684 794 
z
" transform="scale(0.015625)"/>
       </defs>
       <use xlink:href="#DejaVuSans-31"/>
       <use xlink:href="#DejaVuSans-2e" transform="translate(63.623047 0)"/>
       <use xlink:href="#DejaVuSans-30" transform="translate(95.410156 0)"/>
      </g>
     </g>
    </g>
    <g id="ytick_10">
     <g id="line2d_44">
      <g>
       <use xlink:href="#mb67a8460a0" x="52.85" y="246.225635" style="stroke: #000000; stroke-width: 0.8"/>
      </g>
     </g>
     <g id="text_14">
      <!-- 1.5 -->
      <g transform="translate(29.946875 250.024854) scale(0.1 -0.1)">
       <use xlink:href="#DejaVuSans-31"/>
       <use xlink:href="#DejaVuSans-2e" transform="translate(63.623047 0)"/>
       <use xlink:href="#DejaVuSans-35" transform="translate(95.410156 0)"/>
      </g>
     </g>
    </g>
    <g id="text_15">
     <!-- u -->
     <g transform="translate(23.867188 269.348796) rotate(-90) scale(0.1 -0.1)">
      <use xlink:href="#DejaVuSans-75"/>
     </g>
    </g>
   </g>
   <g id="line2d_45">
    <path d="M 82.684091 275.551607 
L 83.282568 273.967085 
L 83.881045 274.361734 
L 84.479523 273.018182 
L 85.078 272.532951 
L 85.676477 269.858264 
L 86.274954 269.746332 
L 86.873432 269.006053 
L 87.471909 270.481525 
L 88.070386 269.797018 
L 88.668863 268.863368 
L 89.267341 269.680866 
L 89.865818 265.158561 
L 90.464295 268.575394 
L 91.062772 264.843303 
L 91.66125 267.704411 
L 92.259727 264.186887 
L 92.858204 265.614219 
L 93.456681 265.482028 
L 94.055159 264.011577 
L 94.653636 264.151275 
L 95.252113 263.661856 
L 95.85059 263.803265 
L 96.449068 264.429548 
L 97.047545 261.490201 
L 97.646022 263.231972 
L 98.244499 263.187879 
L 98.842977 261.163299 
L 99.441454 261.924682 
L 100.039931 264.194005 
L 100.638408 260.772857 
L 101.236886 264.062976 
L 101.835363 264.298836 
L 102.43384 264.677362 
L 103.032317 261.127922 
L 103.630795 261.694494 
L 104.229272 263.963129 
L 104.827749 263.357791 
L 105.426226 262.262708 
L 106.024704 263.030653 
L 106.623181 264.482386 
L 107.221658 264.655477 
L 107.820135 263.356277 
L 108.418613 264.657219 
L 109.01709 264.113147 
L 109.615567 265.604143 
L 110.214044 265.184114 
L 110.812522 265.965892 
L 111.410999 266.482196 
L 112.607953 265.274211 
L 113.206431 267.327691 
L 113.804908 268.153177 
L 114.403385 267.998371 
L 115.001862 269.311815 
L 115.60034 267.76664 
L 116.198817 271.421508 
L 116.797294 270.296475 
L 117.395771 271.058638 
L 117.994249 272.682794 
L 118.592726 273.275013 
L 119.191203 273.572348 
L 119.78968 272.855584 
L 120.388158 276.068132 
L 120.986635 275.876005 
L 121.585112 275.850354 
L 122.183589 275.284315 
L 122.782067 276.070622 
L 123.380544 276.397562 
L 123.979021 276.159558 
L 125.175976 279.736637 
L 125.774453 276.989082 
L 126.37293 280.303809 
L 126.971407 278.037302 
L 127.569885 281.044593 
L 128.168362 281.084419 
L 128.766839 281.3122 
L 129.365316 282.905287 
L 129.963794 281.28282 
L 130.562271 282.209464 
L 131.160748 282.024772 
L 131.759225 283.310809 
L 132.357703 281.872551 
L 132.95618 281.823856 
L 133.554657 282.707522 
L 134.153134 282.178182 
L 134.751612 280.438025 
L 135.948566 284.505993 
L 136.547043 284.107347 
L 137.145521 284.816285 
L 137.743998 284.157891 
L 138.342475 283.87338 
L 138.940952 282.261198 
L 139.53943 284.51299 
L 140.137907 284.346266 
L 141.334861 282.346258 
L 141.933339 284.509116 
L 142.531816 280.821253 
L 143.130293 283.068766 
L 143.72877 280.847716 
L 144.327248 280.816634 
L 144.925725 280.273079 
L 145.524202 281.157395 
L 146.122679 279.714535 
L 146.721157 281.282302 
L 147.319634 279.074849 
L 147.918111 279.585048 
L 148.516588 277.491753 
L 149.115066 277.655491 
L 149.713543 277.254315 
L 150.31202 277.417971 
L 150.910497 277.8339 
L 151.508975 277.387065 
L 152.107452 274.979871 
L 152.705929 275.9503 
L 153.304406 272.818799 
L 153.902884 274.290796 
L 154.501361 272.618286 
L 155.099838 273.036326 
L 155.698315 270.840334 
L 156.296793 269.642671 
L 156.89527 271.411986 
L 157.493747 269.356275 
L 158.092224 271.298842 
L 159.289179 267.428621 
L 159.887656 268.697568 
L 161.084611 264.120147 
L 161.683088 265.982005 
L 162.281565 264.410131 
L 162.880042 265.578533 
L 163.47852 262.306681 
L 164.076997 263.233221 
L 164.675474 261.295831 
L 165.273951 262.801556 
L 165.872429 261.398302 
L 166.470906 260.474722 
L 167.069383 259.115247 
L 167.66786 261.105643 
L 168.266338 260.781964 
L 168.864815 261.783504 
L 169.463292 261.673798 
L 170.061769 258.497543 
L 170.660247 258.794742 
L 171.258724 257.85815 
L 171.857201 258.354255 
L 172.455678 257.611883 
L 173.054156 259.612998 
L 173.652633 258.010721 
L 174.25111 258.857181 
L 174.849587 257.826961 
L 175.448065 258.253242 
L 176.046542 259.197148 
L 176.645019 258.363841 
L 177.243496 258.592802 
L 177.841974 259.712562 
L 178.440451 257.956979 
L 179.038928 258.315836 
L 179.637405 258.330679 
L 180.235883 258.977362 
L 180.83436 259.987618 
L 181.432837 260.403289 
L 182.629792 258.06719 
L 183.228269 260.61412 
L 183.826746 261.931539 
L 184.425223 261.169034 
L 185.023701 262.42833 
L 185.622178 261.608938 
L 186.220655 262.631075 
L 186.819132 263.933288 
L 187.41761 262.054207 
L 188.016087 264.249668 
L 188.614564 264.64615 
L 189.213041 263.734968 
L 189.811519 265.398953 
L 190.409996 265.328883 
L 191.008473 267.472467 
L 191.60695 264.292601 
L 192.205428 267.14487 
L 192.803905 266.431069 
L 193.402382 267.933558 
L 194.000859 268.452521 
L 194.599337 268.146877 
L 195.197814 270.772145 
L 195.796291 270.079818 
L 196.394768 270.010027 
L 196.993246 270.825609 
L 197.591723 271.274603 
L 198.1902 270.540207 
L 198.788677 273.027055 
L 199.387155 274.41895 
L 199.985632 273.297565 
L 200.584109 273.119162 
L 201.182586 271.593184 
L 201.781064 273.094713 
L 202.379541 275.293994 
L 202.978018 275.259003 
L 203.576495 275.736907 
L 204.174973 275.173718 
L 204.77345 278.902853 
L 205.371927 275.056979 
L 205.970404 277.505159 
L 206.568882 277.962798 
L 207.167359 277.965195 
L 207.765836 277.738712 
L 208.364313 278.754534 
L 208.962791 278.753626 
L 209.561268 277.559833 
L 210.159745 279.300481 
L 210.758222 277.892182 
L 211.3567 277.793627 
L 211.955177 279.348941 
L 212.553654 277.995578 
L 213.152131 279.938737 
L 213.750609 279.948018 
L 214.947563 277.731644 
L 215.54604 276.105461 
L 216.144518 276.60991 
L 216.742995 277.78623 
L 217.341472 278.32097 
L 217.939949 276.014816 
L 218.538427 275.844533 
L 219.136904 277.735006 
L 219.735381 275.272752 
L 220.333858 276.573642 
L 220.932336 274.598994 
L 221.530813 274.89069 
L 222.12929 274.36585 
L 222.727767 273.383067 
L 223.326245 274.668802 
L 223.924722 273.800916 
L 224.523199 273.483952 
L 225.121676 272.272687 
L 225.720154 272.430454 
L 226.318631 269.748753 
L 226.917108 269.555075 
L 227.515585 270.581576 
L 228.114063 270.529581 
L 228.71254 270.162923 
L 229.311017 267.213329 
L 229.909494 270.174833 
L 230.507972 264.710985 
L 231.106449 266.114016 
L 231.704926 264.305695 
L 232.303403 267.437243 
L 232.901881 265.131801 
L 233.500358 263.411474 
L 234.098835 263.284033 
L 234.697312 262.039322 
L 235.894267 262.253005 
L 236.492744 261.194024 
L 237.091221 260.86739 
L 237.689699 260.290215 
L 238.288176 258.539969 
L 240.083608 258.723612 
L 240.682085 259.535365 
L 241.280562 257.64672 
L 241.879039 257.540359 
L 242.477517 255.503069 
L 243.075994 255.959264 
L 243.674471 257.007565 
L 244.272948 255.602622 
L 244.871426 255.18682 
L 245.469903 253.447437 
L 246.06838 253.51164 
L 247.265335 256.169905 
L 247.863812 255.250396 
L 248.462289 254.824597 
L 249.060766 255.90111 
L 249.659244 255.939132 
L 250.257721 252.65846 
L 250.856198 254.128608 
L 251.454675 254.509125 
L 252.053153 253.143416 
L 252.65163 253.877721 
L 253.250107 253.904199 
L 253.848584 251.901934 
L 254.447062 253.85437 
L 255.045539 254.978437 
L 255.644016 255.748043 
L 256.242493 254.390319 
L 256.840971 255.681275 
L 257.439448 254.56449 
L 258.037925 254.284038 
L 258.636402 257.731252 
L 259.833357 256.969902 
L 260.431834 257.328945 
L 261.030311 260.720335 
L 261.628789 257.215174 
L 262.227266 258.392214 
L 262.825743 257.748437 
L 263.42422 260.496012 
L 264.022698 259.01367 
L 264.621175 260.906475 
L 265.219652 264.068459 
L 265.818129 259.436752 
L 266.416607 263.224288 
L 267.015084 262.622324 
L 267.613561 262.781886 
L 268.212038 265.473746 
L 268.810516 263.685553 
L 269.408993 265.395181 
L 270.00747 263.550775 
L 270.605947 266.977813 
L 271.204425 265.398304 
L 271.802902 266.000499 
L 272.401379 268.991902 
L 273.598334 268.561373 
L 274.196811 268.97195 
L 274.795288 270.527293 
L 275.393765 268.562788 
L 275.992243 269.24304 
L 276.59072 271.263814 
L 277.189197 270.58319 
L 277.787674 270.362543 
L 278.386152 272.282004 
L 278.984629 272.019084 
L 279.583106 271.33056 
L 280.181583 273.491783 
L 280.780061 272.406442 
L 281.378538 274.714428 
L 281.977015 274.73343 
L 282.575492 274.904278 
L 283.17397 271.092522 
L 283.772447 275.839164 
L 284.370924 275.242902 
L 285.567879 274.437577 
L 286.166356 275.070437 
L 286.764833 276.082748 
L 287.36331 274.177977 
L 287.961788 275.850622 
L 288.560265 276.301567 
L 289.158742 272.597325 
L 289.757219 274.869011 
L 290.355697 272.995705 
L 290.954174 272.075677 
L 291.552651 272.309852 
L 292.151128 273.94026 
L 292.749606 274.302526 
L 293.348083 275.092278 
L 293.94656 269.843565 
L 294.545037 271.35985 
L 295.143515 272.300072 
L 295.741992 272.682019 
L 296.340469 270.488112 
L 296.938946 271.022733 
L 297.537424 270.748676 
L 298.135901 270.000066 
L 298.734378 268.254555 
L 299.332855 267.198754 
L 299.931333 267.996379 
L 300.52981 268.389597 
L 301.128287 264.769148 
L 302.325242 266.330523 
L 302.923719 264.544741 
L 303.522196 265.134839 
L 304.120673 263.468017 
L 304.719151 263.208479 
L 305.317628 264.638124 
L 305.916105 262.853503 
L 306.514582 260.420214 
L 307.11306 260.313808 
L 307.711537 260.720236 
L 308.310014 259.033111 
L 308.908491 259.193063 
L 309.506969 256.89082 
L 310.105446 258.523215 
L 311.3024 255.977751 
L 312.499355 256.467408 
L 313.097832 254.059736 
L 313.696309 254.796491 
L 314.294787 253.154068 
L 314.893264 253.313053 
L 315.491741 253.905675 
L 316.090218 255.349909 
L 316.688696 251.587467 
L 317.287173 250.219437 
L 317.88565 252.019335 
L 318.484127 251.193991 
L 319.082605 251.593708 
L 319.681082 250.499433 
L 320.279559 251.225546 
L 320.878036 249.913467 
L 321.476514 250.944342 
L 322.074991 250.339095 
L 322.673468 248.393329 
L 323.271945 249.285088 
L 323.870423 249.160742 
L 325.067377 247.570416 
L 325.665854 248.186874 
L 326.264332 249.526382 
L 326.862809 248.508277 
L 327.461286 248.651221 
L 328.059763 249.466116 
L 328.658241 249.759184 
L 329.256718 248.742046 
L 329.855195 251.156644 
L 330.453672 252.584069 
L 331.05215 248.685967 
L 331.650627 249.258337 
L 332.249104 253.5197 
L 332.847581 250.350098 
L 333.446059 252.75372 
L 334.044536 252.130304 
L 334.643013 253.183511 
L 335.24149 252.051757 
L 335.839968 252.254626 
L 336.438445 253.526442 
L 337.036922 253.351228 
L 337.635399 256.129874 
L 338.233877 255.012999 
L 338.832354 255.481668 
L 339.430831 256.891221 
L 340.029308 260.233867 
L 340.627786 256.56933 
L 341.82474 258.846847 
L 342.423217 258.750337 
L 343.021695 258.821447 
L 343.620172 259.715522 
L 344.218649 261.738568 
L 344.817126 261.66411 
L 345.415604 261.382755 
L 346.014081 263.286644 
L 346.612558 261.162707 
L 347.211035 262.628582 
L 347.809513 262.326697 
L 348.40799 265.404099 
L 349.006467 262.283551 
L 349.604944 265.587307 
L 350.203422 265.424557 
L 350.801899 267.315265 
L 351.400376 267.415322 
L 351.998853 265.324386 
L 352.597331 268.505371 
L 353.195808 265.889119 
L 353.794285 267.949953 
L 355.589717 268.782029 
L 356.188194 269.696693 
L 356.786671 266.967937 
L 357.385149 269.817676 
L 357.983626 268.307241 
L 358.582103 271.287644 
L 359.18058 271.035725 
L 359.779058 270.641069 
L 360.377535 269.237612 
L 361.574489 272.02175 
L 362.172967 268.805856 
L 362.771444 271.465511 
L 363.369921 270.621178 
L 363.968398 270.082086 
L 364.566876 267.928667 
L 365.165353 270.084118 
L 365.76383 269.218941 
L 366.362307 270.042012 
L 366.960785 268.978611 
L 367.559262 269.893351 
L 368.157739 271.0707 
L 368.756216 269.198319 
L 369.354694 267.964243 
L 369.953171 268.74584 
L 370.551648 266.519787 
L 371.150125 262.870673 
L 371.748603 266.53973 
L 372.34708 266.295717 
L 372.945557 262.504735 
L 373.544034 265.680921 
L 374.142512 264.540663 
L 374.740989 262.818929 
L 375.339466 263.247361 
L 375.937943 260.745695 
L 376.536421 263.276444 
L 377.134898 260.661303 
L 377.733375 259.169129 
L 378.331852 259.985431 
L 378.93033 260.315713 
L 380.127284 257.760479 
L 380.725761 257.692741 
L 381.324239 273.954413 
L 381.922716 273.83353 
L 382.521193 272.059623 
L 383.11967 270.70787 
L 383.718148 270.303493 
L 384.316625 272.770383 
L 384.915102 270.348773 
L 385.513579 271.435873 
L 386.112057 270.762111 
L 386.710534 270.828684 
L 387.309011 268.11343 
L 388.505966 266.724479 
L 389.104443 266.726734 
L 390.301397 265.800994 
L 390.899875 266.402971 
L 391.498352 265.575965 
L 392.096829 266.762859 
L 392.695306 266.548926 
L 393.293784 265.136204 
L 393.892261 262.840445 
L 394.490738 262.572253 
L 395.089215 263.612085 
L 395.687693 262.609195 
L 396.28617 263.333866 
L 396.884647 262.706166 
L 397.483124 260.886623 
L 398.081602 261.659987 
L 398.680079 264.18632 
L 399.278556 260.528404 
L 399.877033 264.545003 
L 401.073988 262.876983 
L 401.672465 262.895685 
L 402.270942 262.267326 
L 402.86942 260.967483 
L 403.467897 263.283359 
L 404.066374 263.974766 
L 404.664851 263.280966 
L 405.263329 263.051902 
L 405.861806 263.299927 
L 406.460283 264.735408 
L 407.05876 268.942686 
L 407.657238 264.149862 
L 408.255715 265.91698 
L 408.854192 266.484334 
L 409.452669 266.652058 
L 410.051147 265.593929 
L 410.649624 264.969525 
L 411.248101 266.758979 
L 411.846578 266.322151 
L 412.445056 267.805475 
L 413.043533 267.010869 
L 413.64201 269.649665 
L 414.240487 269.047322 
L 414.838965 269.110676 
L 415.437442 268.25781 
L 416.634396 271.035539 
L 417.232874 273.118333 
L 417.831351 272.630535 
L 418.429828 274.879044 
L 419.028305 272.924885 
L 419.626783 273.832438 
L 420.22526 271.872366 
L 420.823737 275.187678 
L 421.422214 275.160331 
L 422.020692 275.595989 
L 422.619169 275.691831 
L 423.217646 277.161755 
L 423.816123 277.339969 
L 424.414601 278.639575 
L 425.013078 278.361197 
L 425.611555 279.236883 
L 426.210032 278.987845 
L 426.80851 280.995179 
L 427.406987 279.859814 
L 428.005464 282.449122 
L 428.603941 280.957316 
L 429.202419 282.611985 
L 429.800896 280.460613 
L 430.399373 281.732274 
L 430.99785 280.359228 
L 431.596328 283.452998 
L 432.194805 282.015629 
L 432.793282 282.039835 
L 433.391759 284.440672 
L 433.990237 284.15152 
L 434.588714 282.588488 
L 435.187191 282.932689 
L 435.785668 281.959099 
L 436.384146 283.196513 
L 436.982623 283.200277 
L 437.5811 284.795927 
L 438.179577 282.446126 
L 438.778055 282.383575 
L 439.376532 282.635995 
L 439.975009 280.536907 
L 440.573486 283.194294 
L 441.171964 281.48307 
L 441.770441 283.702314 
L 442.967395 281.841715 
L 443.565873 280.202667 
L 444.16435 280.587238 
L 444.762827 279.476114 
L 445.361304 280.784956 
L 445.959782 280.507886 
L 446.558259 280.635308 
L 447.156736 279.907921 
L 447.755213 280.41728 
L 448.353691 278.072435 
L 448.952168 277.689257 
L 449.550645 276.99 
L 450.149122 275.331877 
L 450.7476 276.701855 
L 451.346077 274.933692 
L 451.944554 271.996576 
L 452.543031 274.310184 
L 453.141509 273.901225 
L 453.739986 273.268136 
L 454.338463 271.711218 
L 454.93694 270.840998 
L 455.535418 270.848987 
L 456.133895 268.686905 
L 456.732372 268.044783 
L 457.330849 270.326334 
L 457.929327 267.346614 
L 459.126281 265.926252 
L 459.724758 268.090722 
L 460.323236 266.437371 
L 460.921713 265.536177 
L 461.52019 265.47744 
L 462.118667 264.395021 
L 463.315622 264.301452 
L 463.914099 262.905191 
L 464.512576 264.189007 
L 465.111054 262.706124 
L 465.709531 262.971649 
L 466.308008 261.521871 
L 466.906485 259.278 
L 467.504963 261.060463 
L 468.10344 258.628431 
L 468.701917 258.820503 
L 469.300394 256.72724 
L 469.898872 258.111956 
L 470.497349 260.027531 
L 471.095826 258.582713 
L 471.694303 258.029986 
L 472.292781 257.306103 
L 472.891258 258.336644 
L 473.489735 255.955987 
L 474.088212 259.804748 
L 474.68669 256.869002 
L 475.285167 256.756663 
L 475.883644 259.396871 
L 476.482121 255.945165 
L 477.080599 257.869161 
L 477.679076 257.268541 
L 478.277553 257.179343 
L 478.87603 260.514615 
L 479.474508 260.295854 
L 480.072985 258.21424 
L 480.671462 260.094908 
L 481.269939 259.987213 
L 481.868417 260.663733 
L 482.466894 260.122436 
L 483.065371 261.403013 
L 483.663848 262.099964 
L 484.262326 261.116038 
L 484.860803 261.926674 
L 485.45928 262.428134 
L 486.057757 264.179002 
L 486.656235 264.109584 
L 487.254712 263.369085 
L 487.853189 264.833435 
L 488.451666 265.839296 
L 489.050144 264.909241 
L 489.648621 262.554101 
L 490.845575 265.849017 
L 492.04253 266.736975 
L 492.641007 268.277252 
L 493.239484 268.391121 
L 493.837962 269.146762 
L 494.436439 270.8149 
L 495.034916 270.132382 
L 495.633393 271.439315 
L 496.231871 271.835988 
L 496.830348 270.19318 
L 497.428825 273.313249 
L 498.027302 273.857496 
L 498.62578 274.876701 
L 499.224257 274.309425 
L 499.822734 273.215923 
L 500.421211 274.779315 
L 501.019689 275.481775 
L 501.618166 274.429545 
L 502.216643 275.111077 
L 502.81512 275.516404 
L 503.413598 276.602803 
L 504.012075 275.670899 
L 504.610552 276.176982 
L 505.209029 278.149462 
L 505.807507 279.581536 
L 506.405984 279.342152 
L 507.004461 278.243774 
L 507.602938 278.746677 
L 508.201416 278.02508 
L 508.799893 278.683468 
L 509.39837 279.084799 
L 509.996847 277.967989 
L 510.595325 278.312336 
L 511.193802 278.947851 
L 511.792279 279.997891 
L 512.390756 279.439323 
L 512.989234 279.14002 
L 513.587711 279.873539 
L 514.186188 277.667287 
L 514.784665 278.340479 
L 515.383143 277.384584 
L 515.98162 277.241159 
L 516.580097 277.260911 
L 517.178574 278.285491 
L 517.777052 277.880947 
L 518.375529 277.077617 
L 519.572483 274.585709 
L 520.170961 276.261433 
L 520.769438 275.66535 
L 521.367915 275.779966 
L 521.966392 276.337568 
L 522.56487 274.120443 
L 523.163347 273.361626 
L 523.761824 274.203159 
L 524.360301 271.616853 
L 524.958779 271.955327 
L 525.557256 268.700059 
L 526.155733 272.224994 
L 526.75421 268.898239 
L 527.352688 269.309246 
L 527.951165 269.5243 
L 528.549642 266.485912 
L 529.148119 265.186715 
L 529.746597 267.343762 
L 530.345074 266.650939 
L 530.943551 264.789786 
L 531.542028 265.238654 
L 532.140506 264.163531 
L 532.738983 264.553238 
L 533.33746 263.952 
L 533.935937 261.533434 
L 534.534415 261.569875 
L 535.132892 261.139336 
L 535.731369 260.892214 
L 536.329846 258.434114 
L 536.928324 260.335873 
L 537.526801 259.500088 
L 538.125278 257.360568 
L 538.723755 256.853074 
L 539.322233 257.409501 
L 539.92071 257.101704 
L 540.519187 255.334671 
L 541.117664 258.392032 
L 541.716142 257.434914 
L 542.314619 254.81931 
L 542.913096 254.498041 
L 543.511573 255.657873 
L 544.110051 255.740406 
L 544.708528 254.21173 
L 545.307005 253.480351 
L 545.905482 253.644262 
L 546.50396 254.284259 
L 547.102437 253.830491 
L 547.700914 255.077076 
L 548.299391 254.458256 
L 548.897869 254.48406 
L 549.496346 251.606309 
L 550.094823 255.8125 
L 550.6933 253.410815 
L 551.291778 253.087458 
L 551.890255 253.278627 
L 552.488732 253.630649 
L 553.087209 253.42962 
L 553.685687 255.310777 
L 554.284164 256.684982 
L 554.882641 256.038943 
L 555.481118 254.291904 
L 556.678073 255.61585 
L 557.875027 257.517085 
L 558.473505 257.576373 
L 559.071982 257.273018 
L 559.670459 259.800147 
L 560.268936 256.810641 
L 560.867414 261.986827 
L 561.465891 258.241941 
L 562.064368 258.236051 
L 562.662845 258.072858 
L 563.261323 262.061591 
L 563.8598 261.302651 
L 564.458277 262.04895 
L 565.056754 263.701479 
L 565.655232 264.574965 
L 566.253709 263.077989 
L 566.852186 265.481645 
L 567.450663 262.966426 
L 569.246095 267.24684 
L 569.844572 264.33783 
L 570.44305 267.258122 
L 571.041527 268.415434 
L 571.640004 268.788856 
L 572.238481 268.916177 
L 572.836959 269.850234 
L 573.435436 269.833312 
L 574.033913 267.335825 
L 574.63239 270.841591 
L 575.230868 269.951412 
L 575.829345 271.107529 
L 576.427822 272.69522 
L 577.026299 271.14511 
L 577.624777 271.091405 
L 578.223254 273.984078 
L 578.821731 272.596232 
L 579.420208 273.846448 
L 580.018686 273.795311 
L 580.617163 275.567323 
L 581.21564 273.007835 
L 582.412595 273.773766 
L 583.011072 272.661846 
L 583.609549 275.812159 
L 584.806504 274.431245 
L 585.404981 271.988464 
L 586.003458 274.435271 
L 586.601935 273.822555 
L 587.200413 274.176868 
L 587.79889 275.813858 
L 588.397367 274.798191 
L 588.995844 274.969662 
L 589.594322 274.37231 
L 590.192799 275.498127 
L 590.791276 272.926559 
L 591.389753 272.003636 
L 591.988231 272.878359 
L 592.586708 271.800499 
L 593.185185 271.06976 
L 593.783662 271.356421 
L 594.38214 269.40823 
L 594.980617 272.603801 
L 595.579094 268.109702 
L 596.177571 270.004341 
L 596.776049 268.868052 
L 597.374526 268.068802 
L 597.973003 267.764916 
L 598.57148 268.419515 
L 599.169958 267.642922 
L 599.768435 266.440641 
L 600.366912 267.615213 
L 600.965389 266.456137 
L 601.563867 267.637567 
L 602.162344 263.595376 
L 602.760821 263.658736 
L 603.359298 263.921081 
L 603.957776 263.392373 
L 604.556253 261.944297 
L 605.15473 261.268674 
L 605.753207 261.556293 
L 606.351685 259.063772 
L 606.950162 260.464063 
L 607.548639 258.831454 
L 608.147116 257.95114 
L 608.745594 256.554046 
L 609.942548 256.38969 
L 610.541025 257.851055 
L 611.139503 257.197561 
L 611.73798 254.709245 
L 612.336457 254.490234 
L 612.934934 252.82358 
L 613.533412 254.363871 
L 614.131889 253.895032 
L 614.730366 250.872231 
L 615.328843 254.492351 
L 615.927321 252.52746 
L 616.525798 251.275151 
L 617.124275 251.241885 
L 617.722752 250.914332 
L 618.32123 249.628033 
L 618.919707 249.684668 
L 619.518184 250.196517 
L 620.116661 250.377625 
L 620.715139 248.968695 
L 621.313616 249.2936 
L 621.912093 252.694414 
L 622.51057 248.264525 
L 623.109048 248.453858 
L 623.707525 250.339385 
L 624.306002 251.131931 
L 624.904479 250.50889 
L 625.502957 248.479004 
L 626.101434 250.603475 
L 626.699911 249.446642 
L 627.298388 251.207983 
L 627.896866 247.543807 
L 628.495343 249.656243 
L 629.09382 249.066641 
L 629.692297 250.607523 
L 630.290775 251.532641 
L 630.889252 251.060983 
L 631.487729 252.365524 
L 632.086206 252.977641 
L 632.684684 251.663201 
L 633.283161 253.323002 
L 633.881638 254.040996 
L 634.480115 252.395759 
L 635.078593 252.609035 
L 635.67707 255.590091 
L 636.275547 256.044834 
L 636.874024 255.464099 
L 638.070979 256.1221 
L 638.669456 256.055146 
L 639.267933 257.130359 
L 639.866411 256.965364 
L 641.063365 257.965005 
L 641.661842 259.296693 
L 642.26032 261.640685 
L 642.858797 261.581147 
L 643.457274 261.687943 
L 644.055751 260.33332 
L 644.654229 264.207828 
L 645.252706 262.104494 
L 645.851183 262.370794 
L 646.44966 260.887656 
L 647.048138 263.656374 
L 648.245092 266.408757 
L 648.843569 266.587733 
L 649.442047 266.022605 
L 650.040524 267.233809 
L 650.639001 266.92753 
L 651.237478 268.028906 
L 651.835956 267.793192 
L 652.434433 270.916264 
L 653.03291 268.900248 
L 653.631387 266.44959 
L 654.229865 266.659706 
L 654.828342 270.681624 
L 655.426819 269.665344 
L 656.025296 270.122974 
L 656.623774 270.951843 
L 657.222251 270.101656 
L 657.820728 270.036931 
L 658.419205 269.545654 
L 659.017683 271.806257 
L 660.214637 269.055078 
L 660.813114 268.571147 
L 661.411592 269.340219 
L 662.010069 268.495621 
L 662.608546 270.045964 
L 663.207023 269.495474 
L 663.805501 270.221147 
L 664.403978 266.889505 
L 665.002455 270.560888 
L 665.600932 269.009735 
L 666.19941 269.757095 
L 666.797887 269.691894 
L 667.396364 266.662175 
L 667.994841 268.005469 
L 668.593319 268.453477 
L 669.191796 267.729986 
L 669.790273 265.10914 
L 670.38875 265.872367 
L 670.987228 265.63866 
L 671.585705 263.466227 
L 672.184182 264.463557 
L 672.782659 264.740035 
L 673.381137 265.309128 
L 673.979614 263.197545 
L 674.578091 262.028468 
L 675.176568 261.468357 
L 675.775046 262.51 
L 676.373523 261.552056 
L 676.972 259.681888 
L 677.570477 260.228813 
L 678.767432 257.480256 
L 679.365909 258.783792 
L 679.365909 258.783792 
" clip-path="url(#pba1046bafa)" style="fill: none; stroke: #9467bd; stroke-width: 1.5; stroke-linecap: square"/>
   </g>
   <g id="patch_23">
    <path d="M 52.85 286.679909 
L 52.85 245.680183 
" style="fill: none; stroke: #000000; stroke-width: 0.8; stroke-linejoin: miter; stroke-linecap: square"/>
   </g>
   <g id="patch_24">
    <path d="M 709.2 286.679909 
L 709.2 245.680183 
" style="fill: none; stroke: #000000; stroke-width: 0.8; stroke-linejoin: miter; stroke-linecap: square"/>
   </g>
   <g id="patch_25">
    <path d="M 52.85 286.679909 
L 709.2 286.679909 
" style="fill: none; stroke: #000000; stroke-width: 0.8; stroke-linejoin: miter; stroke-linecap: square"/>
   </g>
   <g id="patch_26">
    <path d="M 52.85 245.680183 
L 709.2 245.680183 
" style="fill: none; stroke: #000000; stroke-width: 0.8; stroke-linejoin: miter; stroke-linecap: square"/>
   </g>
  </g>
  <g id="axes_6">
   <g id="patch_27">
    <path d="M 52.85 345.399954 
L 709.2 345.399954 
L 709.2 304.400228 
L 52.85 304.400228 
z
" style="fill: #ffffff"/>
   </g>
   <g id="matplotlib.axis_11">
    <g id="xtick_31">
     <g id="line2d_46">
      <g>
       <use xlink:href="#m6656601ab6" x="82.684091" y="345.399954" style="stroke: #000000; stroke-width: 0.8"/>
      </g>
     </g>
    </g>
    <g id="xtick_32">
     <g id="line2d_47">
      <g>
       <use xlink:href="#m6656601ab6" x="202.379541" y="345.399954" style="stroke: #000000; stroke-width: 0.8"/>
      </g>
     </g>
    </g>
    <g id="xtick_33">
     <g id="line2d_48">
      <g>
       <use xlink:href="#m6656601ab6" x="322.074991" y="345.399954" style="stroke: #000000; stroke-width: 0.8"/>
      </g>
     </g>
    </g>
    <g id="xtick_34">
     <g id="line2d_49">
      <g>
       <use xlink:href="#m6656601ab6" x="441.770441" y="345.399954" style="stroke: #000000; stroke-width: 0.8"/>
      </g>
     </g>
    </g>
    <g id="xtick_35">
     <g id="line2d_50">
      <g>
       <use xlink:href="#m6656601ab6" x="561.465891" y="345.399954" style="stroke: #000000; stroke-width: 0.8"/>
      </g>
     </g>
    </g>
    <g id="xtick_36">
     <g id="line2d_51">
      <g>
       <use xlink:href="#m6656601ab6" x="681.161341" y="345.399954" style="stroke: #000000; stroke-width: 0.8"/>
      </g>
     </g>
    </g>
   </g>
   <g id="matplotlib.axis_12">
    <g id="ytick_11">
     <g id="line2d_52">
      <g>
       <use xlink:href="#mb67a8460a0" x="52.85" y="343.53633" style="stroke: #000000; stroke-width: 0.8"/>
      </g>
     </g>
     <g id="text_16">
      <!-- 0 -->
      <g transform="translate(39.4875 347.335549) scale(0.1 -0.1)">
       <use xlink:href="#DejaVuSans-30"/>
      </g>
     </g>
    </g>
    <g id="ytick_12">
     <g id="line2d_53">
      <g>
       <use xlink:href="#mb67a8460a0" x="52.85" y="306.263852" style="stroke: #000000; stroke-width: 0.8"/>
      </g>
     </g>
     <g id="text_17">
      <!-- 1 -->
      <g transform="translate(39.4875 310.063071) scale(0.1 -0.1)">
       <use xlink:href="#DejaVuSans-31"/>
      </g>
     </g>
    </g>
    <g id="text_18">
     <!-- f1 -->
     <g transform="translate(33.407813 329.841498) rotate(-90) scale(0.1 -0.1)">
      <defs>
       <path id="DejaVuSans-66" d="M 2375 4863 
L 2375 4384 
L 1825 4384 
Q 1516 4384 1395 4259 
Q 1275 4134 1275 3809 
L 1275 3500 
L 2222 3500 
L 2222 3053 
L 1275 3053 
L 1275 0 
L 697 0 
L 697 3053 
L 147 3053 
L 147 3500 
L 697 3500 
L 697 3744 
Q 697 4328 969 4595 
Q 1241 4863 1831 4863 
L 2375 4863 
z
" transform="scale(0.015625)"/>
      </defs>
      <use xlink:href="#DejaVuSans-66"/>
      <use xlink:href="#DejaVuSans-31" transform="translate(35.205078 0)"/>
     </g>
    </g>
   </g>
   <g id="line2d_54">
    <path d="M 82.684091 343.53633 
L 231.106449 343.53633 
L 231.704926 306.263852 
L 380.725761 306.263852 
L 381.324239 343.53633 
L 679.365909 343.53633 
L 679.365909 343.53633 
" clip-path="url(#p6733ee0ec5)" style="fill: none; stroke: #8c564b; stroke-width: 1.5; stroke-linecap: square"/>
   </g>
   <g id="patch_28">
    <path d="M 52.85 345.399954 
L 52.85 304.400228 
" style="fill: none; stroke: #000000; stroke-width: 0.8; stroke-linejoin: miter; stroke-linecap: square"/>
   </g>
   <g id="patch_29">
    <path d="M 709.2 345.399954 
L 709.2 304.400228 
" style="fill: none; stroke: #000000; stroke-width: 0.8; stroke-linejoin: miter; stroke-linecap: square"/>
   </g>
   <g id="patch_30">
    <path d="M 52.85 345.399954 
L 709.2 345.399954 
" style="fill: none; stroke: #000000; stroke-width: 0.8; stroke-linejoin: miter; stroke-linecap: square"/>
   </g>
   <g id="patch_31">
    <path d="M 52.85 304.400228 
L 709.2 304.400228 
" style="fill: none; stroke: #000000; stroke-width: 0.8; stroke-linejoin: miter; stroke-linecap: square"/>
   </g>
  </g>
  <g id="axes_7">
   <g id="patch_32">
    <path d="M 52.85 404.12 
L 709.2 404.12 
L 709.2 363.120274 
L 52.85 363.120274 
z
" style="fill: #ffffff"/>
   </g>
   <g id="matplotlib.axis_13">
    <g id="xtick_37">
     <g id="line2d_55">
      <g>
       <use xlink:href="#m6656601ab6" x="82.684091" y="404.12" style="stroke: #000000; stroke-width: 0.8"/>
      </g>
     </g>
     <g id="text_19">
      <!-- 0 -->
      <g transform="translate(79.502841 418.718437) scale(0.1 -0.1)">
       <use xlink:href="#DejaVuSans-30"/>
      </g>
     </g>
    </g>
    <g id="xtick_38">
     <g id="line2d_56">
      <g>
       <use xlink:href="#m6656601ab6" x="202.379541" y="404.12" style="stroke: #000000; stroke-width: 0.8"/>
      </g>
     </g>
     <g id="text_20">
      <!-- 200 -->
      <g transform="translate(192.835791 418.718437) scale(0.1 -0.1)">
       <use xlink:href="#DejaVuSans-32"/>
       <use xlink:href="#DejaVuSans-30" transform="translate(63.623047 0)"/>
       <use xlink:href="#DejaVuSans-30" transform="translate(127.246094 0)"/>
      </g>
     </g>
    </g>
    <g id="xtick_39">
     <g id="line2d_57">
      <g>
       <use xlink:href="#m6656601ab6" x="322.074991" y="404.12" style="stroke: #000000; stroke-width: 0.8"/>
      </g>
     </g>
     <g id="text_21">
      <!-- 400 -->
      <g transform="translate(312.531241 418.718437) scale(0.1 -0.1)">
       <defs>
        <path id="DejaVuSans-34" d="M 2419 4116 
L 825 1625 
L 2419 1625 
L 2419 4116 
z
M 2253 4666 
L 3047 4666 
L 3047 1625 
L 3713 1625 
L 3713 1100 
L 3047 1100 
L 3047 0 
L 2419 0 
L 2419 1100 
L 313 1100 
L 313 1709 
L 2253 4666 
z
" transform="scale(0.015625)"/>
       </defs>
       <use xlink:href="#DejaVuSans-34"/>
       <use xlink:href="#DejaVuSans-30" transform="translate(63.623047 0)"/>
       <use xlink:href="#DejaVuSans-30" transform="translate(127.246094 0)"/>
      </g>
     </g>
    </g>
    <g id="xtick_40">
     <g id="line2d_58">
      <g>
       <use xlink:href="#m6656601ab6" x="441.770441" y="404.12" style="stroke: #000000; stroke-width: 0.8"/>
      </g>
     </g>
     <g id="text_22">
      <!-- 600 -->
      <g transform="translate(432.226691 418.718437) scale(0.1 -0.1)">
       <defs>
        <path id="DejaVuSans-36" d="M 2113 2584 
Q 1688 2584 1439 2293 
Q 1191 2003 1191 1497 
Q 1191 994 1439 701 
Q 1688 409 2113 409 
Q 2538 409 2786 701 
Q 3034 994 3034 1497 
Q 3034 2003 2786 2293 
Q 2538 2584 2113 2584 
z
M 3366 4563 
L 3366 3988 
Q 3128 4100 2886 4159 
Q 2644 4219 2406 4219 
Q 1781 4219 1451 3797 
Q 1122 3375 1075 2522 
Q 1259 2794 1537 2939 
Q 1816 3084 2150 3084 
Q 2853 3084 3261 2657 
Q 3669 2231 3669 1497 
Q 3669 778 3244 343 
Q 2819 -91 2113 -91 
Q 1303 -91 875 529 
Q 447 1150 447 2328 
Q 447 3434 972 4092 
Q 1497 4750 2381 4750 
Q 2619 4750 2861 4703 
Q 3103 4656 3366 4563 
z
" transform="scale(0.015625)"/>
       </defs>
       <use xlink:href="#DejaVuSans-36"/>
       <use xlink:href="#DejaVuSans-30" transform="translate(63.623047 0)"/>
       <use xlink:href="#DejaVuSans-30" transform="translate(127.246094 0)"/>
      </g>
     </g>
    </g>
    <g id="xtick_41">
     <g id="line2d_59">
      <g>
       <use xlink:href="#m6656601ab6" x="561.465891" y="404.12" style="stroke: #000000; stroke-width: 0.8"/>
      </g>
     </g>
     <g id="text_23">
      <!-- 800 -->
      <g transform="translate(551.922141 418.718437) scale(0.1 -0.1)">
       <defs>
        <path id="DejaVuSans-38" d="M 2034 2216 
Q 1584 2216 1326 1975 
Q 1069 1734 1069 1313 
Q 1069 891 1326 650 
Q 1584 409 2034 409 
Q 2484 409 2743 651 
Q 3003 894 3003 1313 
Q 3003 1734 2745 1975 
Q 2488 2216 2034 2216 
z
M 1403 2484 
Q 997 2584 770 2862 
Q 544 3141 544 3541 
Q 544 4100 942 4425 
Q 1341 4750 2034 4750 
Q 2731 4750 3128 4425 
Q 3525 4100 3525 3541 
Q 3525 3141 3298 2862 
Q 3072 2584 2669 2484 
Q 3125 2378 3379 2068 
Q 3634 1759 3634 1313 
Q 3634 634 3220 271 
Q 2806 -91 2034 -91 
Q 1263 -91 848 271 
Q 434 634 434 1313 
Q 434 1759 690 2068 
Q 947 2378 1403 2484 
z
M 1172 3481 
Q 1172 3119 1398 2916 
Q 1625 2713 2034 2713 
Q 2441 2713 2670 2916 
Q 2900 3119 2900 3481 
Q 2900 3844 2670 4047 
Q 2441 4250 2034 4250 
Q 1625 4250 1398 4047 
Q 1172 3844 1172 3481 
z
" transform="scale(0.015625)"/>
       </defs>
       <use xlink:href="#DejaVuSans-38"/>
       <use xlink:href="#DejaVuSans-30" transform="translate(63.623047 0)"/>
       <use xlink:href="#DejaVuSans-30" transform="translate(127.246094 0)"/>
      </g>
     </g>
    </g>
    <g id="xtick_42">
     <g id="line2d_60">
      <g>
       <use xlink:href="#m6656601ab6" x="681.161341" y="404.12" style="stroke: #000000; stroke-width: 0.8"/>
      </g>
     </g>
     <g id="text_24">
      <!-- 1000 -->
      <g transform="translate(668.436341 418.718437) scale(0.1 -0.1)">
       <use xlink:href="#DejaVuSans-31"/>
       <use xlink:href="#DejaVuSans-30" transform="translate(63.623047 0)"/>
       <use xlink:href="#DejaVuSans-30" transform="translate(127.246094 0)"/>
       <use xlink:href="#DejaVuSans-30" transform="translate(190.869141 0)"/>
      </g>
     </g>
    </g>
   </g>
   <g id="matplotlib.axis_14">
    <g id="ytick_13">
     <g id="line2d_61">
      <g>
       <use xlink:href="#mb67a8460a0" x="52.85" y="402.256376" style="stroke: #000000; stroke-width: 0.8"/>
      </g>
     </g>
     <g id="text_25">
      <!-- 0 -->
      <g transform="translate(39.4875 406.055595) scale(0.1 -0.1)">
       <use xlink:href="#DejaVuSans-30"/>
      </g>
     </g>
    </g>
    <g id="ytick_14">
     <g id="line2d_62">
      <g>
       <use xlink:href="#mb67a8460a0" x="52.85" y="364.983898" style="stroke: #000000; stroke-width: 0.8"/>
      </g>
     </g>
     <g id="text_26">
      <!-- 1 -->
      <g transform="translate(39.4875 368.783117) scale(0.1 -0.1)">
       <use xlink:href="#DejaVuSans-31"/>
      </g>
     </g>
    </g>
    <g id="text_27">
     <!-- f2 -->
     <g transform="translate(33.407813 388.561543) rotate(-90) scale(0.1 -0.1)">
      <use xlink:href="#DejaVuSans-66"/>
      <use xlink:href="#DejaVuSans-32" transform="translate(35.205078 0)"/>
     </g>
    </g>
   </g>
   <g id="line2d_63">
    <path d="M 82.684091 402.256376 
L 529.746597 402.256376 
L 530.345074 364.983898 
L 679.365909 364.983898 
L 679.365909 364.983898 
" clip-path="url(#p56f50c24b1)" style="fill: none; stroke: #e377c2; stroke-width: 1.5; stroke-linecap: square"/>
   </g>
   <g id="patch_33">
    <path d="M 52.85 404.12 
L 52.85 363.120274 
" style="fill: none; stroke: #000000; stroke-width: 0.8; stroke-linejoin: miter; stroke-linecap: square"/>
   </g>
   <g id="patch_34">
    <path d="M 709.2 404.12 
L 709.2 363.120274 
" style="fill: none; stroke: #000000; stroke-width: 0.8; stroke-linejoin: miter; stroke-linecap: square"/>
   </g>
   <g id="patch_35">
    <path d="M 52.85 404.12 
L 709.2 404.12 
" style="fill: none; stroke: #000000; stroke-width: 0.8; stroke-linejoin: miter; stroke-linecap: square"/>
   </g>
   <g id="patch_36">
    <path d="M 52.85 363.120274 
L 709.2 363.120274 
" style="fill: none; stroke: #000000; stroke-width: 0.8; stroke-linejoin: miter; stroke-linecap: square"/>
   </g>
  </g>
 </g>
 <defs>
  <clipPath id="pde21c7fb6b">
   <rect x="52.85" y="10.8" width="656.35" height="40.999726"/>
  </clipPath>
  <clipPath id="p915e81b1b9">
   <rect x="52.85" y="69.520046" width="656.35" height="40.999726"/>
  </clipPath>
  <clipPath id="p0c77be3a2d">
   <rect x="52.85" y="128.240091" width="656.35" height="40.999726"/>
  </clipPath>
  <clipPath id="p795244fa3c">
   <rect x="52.85" y="186.960137" width="656.35" height="40.999726"/>
  </clipPath>
  <clipPath id="pba1046bafa">
   <rect x="52.85" y="245.680183" width="656.35" height="40.999726"/>
  </clipPath>
  <clipPath id="p6733ee0ec5">
   <rect x="52.85" y="304.400228" width="656.35" height="40.999726"/>
  </clipPath>
  <clipPath id="p56f50c24b1">
   <rect x="52.85" y="363.120274" width="656.35" height="40.999726"/>
  </clipPath>
 </defs>
</svg>
